<svg xmlns="http://www.w3.org/2000/svg" xmlns:xlink="http://www.w3.org/1999/xlink" version="1.1" id="Layer_1" x="0px" y="0px" style="enable-background:new 0 0 623.2 720;" xml:space="preserve" viewBox="180 180 263.2 359.98">
<style type="text/css">
	.st0{fill:none;}
	.st1{fill:url(#SVGID_1_);}
	.st2{fill:url(#SVGID_00000164490385430632900290000017713265553553642943_);}
	.st3{fill:url(#SVGID_00000138553357363614343780000017339043157170613902_);}
	.st4{fill:url(#SVGID_00000053520179012698991840000012635602047963313830_);}
	.st5{fill:url(#SVGID_00000073688378557451393060000001135580044288564902_);}
	.st6{fill:url(#SVGID_00000085951858984320478860000015818428912949961893_);}
</style>
<g>
	<rect class="st0" width="623.2" height="720"/>
	<g>
		<radialGradient id="SVGID_1_" cx="179.6395" cy="514.0542" r="377.2073" gradientUnits="userSpaceOnUse">
			<stop offset="0" style="stop-color:#7E46D8"/>
			<stop offset="0.333" style="stop-color:#9263D9"/>
			<stop offset="0.666" style="stop-color:#0093B8"/>
			<stop offset="1" style="stop-color:#00A892"/>
		</radialGradient>
		<path class="st1" d="M241.3,201.9c-10.1,0-61.3,2.6-61.3,52v111.3h11.7c8,0,14.5-6.5,14.5-14.5V248.5c0-19.4,3.4-30.9,15.9-38.8    c44.5-7.8,113-0.3,113,90.1c0,39.6-25.7,91.1-128.8,86.4c-10.3-0.5-26.2,6.7-26.2,25.6v102.6l11.8,3.1c7.9,2.1,14.4-2.9,14.4-11.3    v-92.2c0-23.2,17.9-27.1,36.9-26.2c65.2,2.9,118.2-21.1,118.2-90.5C361.3,217.2,289.7,198,241.3,201.9z"/>
		
			<radialGradient id="SVGID_00000085250173682100640170000007568230595481300871_" cx="179.7094" cy="365.3833" r="232.3013" gradientUnits="userSpaceOnUse">
			<stop offset="0" style="stop-color:#7E46D8"/>
			<stop offset="0.333" style="stop-color:#9263D9"/>
			<stop offset="0.666" style="stop-color:#0093B8"/>
			<stop offset="1" style="stop-color:#00A892"/>
		</radialGradient>
		<path style="fill:url(#SVGID_00000085250173682100640170000007568230595481300871_);" d="M241.3,201.9    c-28.7,7.8-35.1,19.6-35.1,46.6v102.3c0,8-6.5,14.5-14.5,14.5H180V254C180,204.6,231.2,201.9,241.3,201.9z"/>
		
			<radialGradient id="SVGID_00000039824282500251425170000008324394058776782496_" cx="179.6395" cy="514.0542" r="377.2073" gradientUnits="userSpaceOnUse">
			<stop offset="0" style="stop-color:#7E46D8"/>
			<stop offset="0.333" style="stop-color:#9263D9"/>
			<stop offset="0.666" style="stop-color:#0093B8"/>
			<stop offset="1" style="stop-color:#00A892"/>
		</radialGradient>
		<path style="fill:url(#SVGID_00000039824282500251425170000008324394058776782496_);" d="M282.2,191c-10.1,0-61.3,2.6-61.3,52    v122.3h11.7c8,0,14.5-6.5,14.5-14.5V237.5c0-19.4,3.4-30.9,15.9-38.8c31.7-5,113,13.1,113,97.5c0,39.6-25.7,99-128.8,94.3    c-10.3-0.5-26.2,6.7-26.2,25.6v109.2l11.8,3.1c7.9,2.1,14.4-2.9,14.4-11.3v-98.8c0-23.2,17.9-27.1,36.9-26.2    c65.2,2.9,118.2-26.1,118.2-98.5C402.2,199.1,311.7,191,282.2,191z"/>
		
			<radialGradient id="SVGID_00000091717857134646319470000015689034791808466076_" cx="179.7094" cy="365.3833" r="232.3013" gradientUnits="userSpaceOnUse">
			<stop offset="0" style="stop-color:#7E46D8"/>
			<stop offset="0.333" style="stop-color:#9263D9"/>
			<stop offset="0.666" style="stop-color:#0093B8"/>
			<stop offset="1" style="stop-color:#00A892"/>
		</radialGradient>
		<path style="fill:url(#SVGID_00000091717857134646319470000015689034791808466076_);" d="M282.2,191    c-28.7,7.8-35.1,19.6-35.1,46.6v113.3c0,8-6.5,14.5-14.5,14.5h-11.7V243C220.9,193.6,272.2,191,282.2,191z"/>
		
			<radialGradient id="SVGID_00000012465903429608905810000009987862446887607204_" cx="179.6395" cy="514.0542" r="377.2073" gradientUnits="userSpaceOnUse">
			<stop offset="0" style="stop-color:#7E46D8"/>
			<stop offset="0.333" style="stop-color:#9263D9"/>
			<stop offset="0.666" style="stop-color:#0093B8"/>
			<stop offset="1" style="stop-color:#00A892"/>
		</radialGradient>
		<path style="fill:url(#SVGID_00000012465903429608905810000009987862446887607204_);" d="M323.2,180c-10.1,0-61.3,2.6-61.3,52    v133.3h11.7c8,0,14.5-6.5,14.5-14.5V226.6c0-19.4,3.3-30.9,15.8-38.8c48.6-3.5,113,30.2,113,103.3c0,39.6-25.6,108.5-128.8,103.8    c-10.3-0.5-26.2,6.7-26.2,25.6v115.9l11.8,3.1c7.9,2.1,14.4-2.9,14.4-11.3V422.8c0-23.2,17.9-27.1,36.9-26.2    c65.2,2.9,118.2-31,118.2-107.9C443.2,231.2,401.9,180,323.2,180z"/>
		
			<radialGradient id="SVGID_00000183213691032368570600000000012746961646657423_" cx="179.7094" cy="365.3833" r="232.3013" gradientUnits="userSpaceOnUse">
			<stop offset="0" style="stop-color:#7E46D8"/>
			<stop offset="0.333" style="stop-color:#9263D9"/>
			<stop offset="0.666" style="stop-color:#0093B8"/>
			<stop offset="1" style="stop-color:#00A892"/>
		</radialGradient>
		<path style="fill:url(#SVGID_00000183213691032368570600000000012746961646657423_);" d="M323.2,180    c-28.7,7.8-35.1,19.6-35.1,46.6v124.3c0,8-6.5,14.5-14.5,14.5h-11.7V232C261.8,182.6,313.1,180,323.2,180z"/>
	</g>
</g>
</svg>